<svg width="93" height="33" viewBox="0 0 93 33" fill="none" xmlns="http://www.w3.org/2000/svg">
<g clip-path="url(#clip0)">
<path d="M45.544 14.196C43.9667 14.196 42.7627 13.7573 41.932 12.88C41.1107 12.0027 40.7 10.7567 40.7 9.142C40.7 8.33933 40.826 7.62533 41.078 7C41.33 6.36533 41.6753 5.83333 42.114 5.404C42.5527 4.96533 43.0753 4.634 43.682 4.41C44.2887 4.186 44.9467 4.074 45.656 4.074C46.0667 4.074 46.44 4.10667 46.776 4.172C47.112 4.228 47.406 4.298 47.658 4.382C47.91 4.45667 48.12 4.536 48.288 4.62C48.456 4.704 48.5773 4.76933 48.652 4.816L48.022 6.58C47.7233 6.42133 47.3733 6.286 46.972 6.174C46.58 6.062 46.132 6.006 45.628 6.006C45.292 6.006 44.9607 6.062 44.634 6.174C44.3167 6.286 44.032 6.468 43.78 6.72C43.5373 6.96267 43.3413 7.28 43.192 7.672C43.0427 8.064 42.968 8.54 42.968 9.1C42.968 9.548 43.0147 9.968 43.108 10.36C43.2107 10.7427 43.3693 11.074 43.584 11.354C43.808 11.634 44.0973 11.858 44.452 12.026C44.8067 12.1847 45.236 12.264 45.74 12.264C46.0573 12.264 46.342 12.2453 46.594 12.208C46.846 12.1707 47.07 12.1287 47.266 12.082C47.462 12.026 47.6347 11.9653 47.784 11.9C47.9333 11.8347 48.0687 11.774 48.19 11.718L48.792 13.468C48.484 13.6547 48.05 13.8227 47.49 13.972C46.93 14.1213 46.2813 14.196 45.544 14.196ZM52.9981 14.14C52.3915 14.1307 51.8968 14.0653 51.5141 13.944C51.1408 13.8227 50.8421 13.6547 50.6181 13.44C50.4035 13.216 50.2541 12.95 50.1701 12.642C50.0955 12.3247 50.0581 11.97 50.0581 11.578V3.472L52.1441 3.136V11.158C52.1441 11.3447 52.1581 11.5127 52.1861 11.662C52.2141 11.8113 52.2655 11.9373 52.3401 12.04C52.4241 12.1427 52.5408 12.2267 52.6901 12.292C52.8395 12.3573 53.0401 12.3993 53.2921 12.418L52.9981 14.14ZM56.5738 14H54.4878V6.636H56.5738V14ZM56.7698 4.508C56.7698 4.89067 56.6438 5.194 56.3918 5.418C56.1491 5.63267 55.8598 5.74 55.5238 5.74C55.1878 5.74 54.8938 5.63267 54.6418 5.418C54.3991 5.194 54.2778 4.89067 54.2778 4.508C54.2778 4.12533 54.3991 3.82667 54.6418 3.612C54.8938 3.388 55.1878 3.276 55.5238 3.276C55.8598 3.276 56.1491 3.388 56.3918 3.612C56.6438 3.82667 56.7698 4.12533 56.7698 4.508ZM62.5807 10.094C62.5807 9.422 62.492 8.946 62.3147 8.666C62.1467 8.386 61.8527 8.246 61.4327 8.246C61.302 8.246 61.1667 8.25533 61.0267 8.274C60.8867 8.28333 60.7514 8.29733 60.6207 8.316V14H58.5347V6.888C58.712 6.84133 58.9174 6.79467 59.1507 6.748C59.3934 6.692 59.6454 6.64533 59.9067 6.608C60.1774 6.56133 60.4527 6.52867 60.7327 6.51C61.0127 6.482 61.288 6.468 61.5587 6.468C62.0907 6.468 62.52 6.538 62.8467 6.678C63.1827 6.80867 63.458 6.96733 63.6727 7.154C63.9714 6.93933 64.312 6.77133 64.6947 6.65C65.0867 6.52867 65.446 6.468 65.7727 6.468C66.3607 6.468 66.8414 6.552 67.2147 6.72C67.5974 6.87867 67.9007 7.10733 68.1247 7.406C68.3487 7.70467 68.5027 8.05933 68.5867 8.47C68.6707 8.88067 68.7127 9.338 68.7127 9.842V14H66.6267V10.094C66.6267 9.422 66.538 8.946 66.3607 8.666C66.1927 8.386 65.8987 8.246 65.4787 8.246C65.3667 8.246 65.208 8.274 65.0027 8.33C64.8067 8.386 64.6434 8.456 64.5127 8.54C64.578 8.75467 64.62 8.98333 64.6387 9.226C64.6574 9.45933 64.6667 9.71133 64.6667 9.982V14H62.5807V10.094ZM73.421 12.544C73.6263 12.544 73.8223 12.5393 74.009 12.53C74.1956 12.5207 74.345 12.5067 74.457 12.488V10.906C74.373 10.8873 74.247 10.8687 74.079 10.85C73.911 10.8313 73.757 10.822 73.617 10.822C73.421 10.822 73.2343 10.836 73.057 10.864C72.889 10.8827 72.7396 10.9247 72.609 10.99C72.4783 11.0553 72.3756 11.144 72.301 11.256C72.2263 11.368 72.189 11.508 72.189 11.676C72.189 12.0027 72.2963 12.2313 72.511 12.362C72.735 12.4833 73.0383 12.544 73.421 12.544ZM73.253 6.44C73.869 6.44 74.3823 6.51 74.793 6.65C75.2036 6.79 75.5303 6.99067 75.773 7.252C76.025 7.51333 76.2023 7.83067 76.305 8.204C76.4076 8.57733 76.459 8.99267 76.459 9.45V13.79C76.1603 13.8553 75.745 13.93 75.213 14.014C74.681 14.1073 74.037 14.154 73.281 14.154C72.805 14.154 72.371 14.112 71.979 14.028C71.5963 13.944 71.265 13.8087 70.985 13.622C70.705 13.426 70.4903 13.174 70.341 12.866C70.1916 12.558 70.117 12.18 70.117 11.732C70.117 11.3027 70.201 10.9387 70.369 10.64C70.5463 10.3413 70.7796 10.1033 71.069 9.926C71.3583 9.74867 71.6896 9.62267 72.063 9.548C72.4363 9.464 72.8236 9.422 73.225 9.422C73.4956 9.422 73.7336 9.436 73.939 9.464C74.1536 9.48267 74.3263 9.51067 74.457 9.548V9.352C74.457 8.99733 74.3496 8.71267 74.135 8.498C73.9203 8.28333 73.547 8.176 73.015 8.176C72.6603 8.176 72.3103 8.204 71.965 8.26C71.6196 8.30667 71.321 8.37667 71.069 8.47L70.803 6.79C70.9243 6.75267 71.0736 6.71533 71.251 6.678C71.4376 6.63133 71.6383 6.594 71.853 6.566C72.0676 6.52867 72.2916 6.50067 72.525 6.482C72.7676 6.454 73.0103 6.44 73.253 6.44ZM78.2752 4.802L80.3612 4.466V6.636H82.8672V8.372H80.3612V10.962C80.3612 11.4007 80.4359 11.7507 80.5852 12.012C80.7439 12.2733 81.0566 12.404 81.5232 12.404C81.7472 12.404 81.9759 12.3853 82.2092 12.348C82.4519 12.3013 82.6712 12.2407 82.8672 12.166L83.1612 13.79C82.9092 13.8927 82.6292 13.9813 82.3212 14.056C82.0132 14.1307 81.6352 14.168 81.1872 14.168C80.6179 14.168 80.1466 14.0933 79.7732 13.944C79.3999 13.7853 79.1012 13.5707 78.8772 13.3C78.6532 13.02 78.4946 12.684 78.4012 12.292C78.3172 11.9 78.2752 11.466 78.2752 10.99V4.802ZM83.9425 10.374C83.9425 9.72067 84.0405 9.15133 84.2365 8.666C84.4418 8.17133 84.7078 7.76067 85.0345 7.434C85.3612 7.10733 85.7345 6.86 86.1545 6.692C86.5838 6.524 87.0225 6.44 87.4705 6.44C88.5158 6.44 89.3418 6.762 89.9485 7.406C90.5552 8.04067 90.8585 8.97867 90.8585 10.22C90.8585 10.3413 90.8538 10.4767 90.8445 10.626C90.8352 10.766 90.8258 10.892 90.8165 11.004H86.0845C86.1312 11.4333 86.3318 11.774 86.6865 12.026C87.0412 12.278 87.5172 12.404 88.1145 12.404C88.4972 12.404 88.8705 12.3713 89.2345 12.306C89.6078 12.2313 89.9112 12.1427 90.1445 12.04L90.4245 13.734C90.3125 13.79 90.1632 13.846 89.9765 13.902C89.7898 13.958 89.5798 14.0047 89.3465 14.042C89.1225 14.0887 88.8798 14.126 88.6185 14.154C88.3572 14.182 88.0958 14.196 87.8345 14.196C87.1718 14.196 86.5932 14.098 86.0985 13.902C85.6132 13.706 85.2072 13.44 84.8805 13.104C84.5632 12.7587 84.3252 12.3527 84.1665 11.886C84.0172 11.4193 83.9425 10.9153 83.9425 10.374ZM88.8425 9.576C88.8332 9.39867 88.8005 9.226 88.7445 9.058C88.6978 8.89 88.6185 8.74067 88.5065 8.61C88.4038 8.47933 88.2685 8.372 88.1005 8.288C87.9418 8.204 87.7412 8.162 87.4985 8.162C87.2652 8.162 87.0645 8.204 86.8965 8.288C86.7285 8.36267 86.5885 8.46533 86.4765 8.596C86.3645 8.72667 86.2758 8.88067 86.2105 9.058C86.1545 9.226 86.1125 9.39867 86.0845 9.576H88.8425ZM43.304 28.222C43.4067 28.2313 43.5233 28.2407 43.654 28.25C43.794 28.25 43.9573 28.25 44.144 28.25C45.236 28.25 46.0433 27.9747 46.566 27.424C47.098 26.8733 47.364 26.1127 47.364 25.142C47.364 24.1247 47.112 23.3547 46.608 22.832C46.104 22.3093 45.306 22.048 44.214 22.048C44.0647 22.048 43.9107 22.0527 43.752 22.062C43.5933 22.062 43.444 22.0713 43.304 22.09V28.222ZM49.618 25.142C49.618 25.982 49.4873 26.7147 49.226 27.34C48.9647 27.9653 48.5913 28.4833 48.106 28.894C47.63 29.3047 47.0467 29.6127 46.356 29.818C45.6653 30.0233 44.8907 30.126 44.032 30.126C43.64 30.126 43.1827 30.1073 42.66 30.07C42.1373 30.042 41.624 29.9767 41.12 29.874V20.424C41.624 20.3307 42.1467 20.27 42.688 20.242C43.2387 20.2047 43.71 20.186 44.102 20.186C44.9327 20.186 45.684 20.2793 46.356 20.466C47.0373 20.6527 47.6207 20.9467 48.106 21.348C48.5913 21.7493 48.9647 22.2627 49.226 22.888C49.4873 23.5133 49.618 24.2647 49.618 25.142ZM53.3883 30H51.3023V22.636H53.3883V30ZM53.5843 20.508C53.5843 20.8907 53.4583 21.194 53.2063 21.418C52.9636 21.6327 52.6743 21.74 52.3383 21.74C52.0023 21.74 51.7083 21.6327 51.4563 21.418C51.2136 21.194 51.0923 20.8907 51.0923 20.508C51.0923 20.1253 51.2136 19.8267 51.4563 19.612C51.7083 19.388 52.0023 19.276 52.3383 19.276C52.6743 19.276 52.9636 19.388 53.2063 19.612C53.4583 19.8267 53.5843 20.1253 53.5843 20.508ZM54.9991 26.374C54.9991 25.7207 55.0971 25.1513 55.2931 24.666C55.4985 24.1713 55.7645 23.7607 56.0911 23.434C56.4178 23.1073 56.7911 22.86 57.2111 22.692C57.6405 22.524 58.0791 22.44 58.5271 22.44C59.5725 22.44 60.3985 22.762 61.0051 23.406C61.6118 24.0407 61.9151 24.9787 61.9151 26.22C61.9151 26.3413 61.9105 26.4767 61.9011 26.626C61.8918 26.766 61.8825 26.892 61.8731 27.004H57.1411C57.1878 27.4333 57.3885 27.774 57.7431 28.026C58.0978 28.278 58.5738 28.404 59.1711 28.404C59.5538 28.404 59.9271 28.3713 60.2911 28.306C60.6645 28.2313 60.9678 28.1427 61.2011 28.04L61.4811 29.734C61.3691 29.79 61.2198 29.846 61.0331 29.902C60.8465 29.958 60.6365 30.0047 60.4031 30.042C60.1791 30.0887 59.9365 30.126 59.6751 30.154C59.4138 30.182 59.1525 30.196 58.8911 30.196C58.2285 30.196 57.6498 30.098 57.1551 29.902C56.6698 29.706 56.2638 29.44 55.9371 29.104C55.6198 28.7587 55.3818 28.3527 55.2231 27.886C55.0738 27.4193 54.9991 26.9153 54.9991 26.374ZM59.8991 25.576C59.8898 25.3987 59.8571 25.226 59.8011 25.058C59.7545 24.89 59.6751 24.7407 59.5631 24.61C59.4605 24.4793 59.3251 24.372 59.1571 24.288C58.9985 24.204 58.7978 24.162 58.5551 24.162C58.3218 24.162 58.1211 24.204 57.9531 24.288C57.7851 24.3627 57.6451 24.4653 57.5331 24.596C57.4211 24.7267 57.3325 24.8807 57.2671 25.058C57.2111 25.226 57.1691 25.3987 57.1411 25.576H59.8991ZM63.4549 20.802L65.5409 20.466V22.636H68.0469V24.372H65.5409V26.962C65.5409 27.4007 65.6156 27.7507 65.7649 28.012C65.9236 28.2733 66.2363 28.404 66.7029 28.404C66.9269 28.404 67.1556 28.3853 67.3889 28.348C67.6316 28.3013 67.8509 28.2407 68.0469 28.166L68.3409 29.79C68.0889 29.8927 67.8089 29.9813 67.5009 30.056C67.1929 30.1307 66.8149 30.168 66.3669 30.168C65.7976 30.168 65.3263 30.0933 64.9529 29.944C64.5796 29.7853 64.2809 29.5707 64.0569 29.3C63.8329 29.02 63.6743 28.684 63.5809 28.292C63.4969 27.9 63.4549 27.466 63.4549 26.99V20.802ZM75.8949 28.334C76.2029 28.334 76.4549 28.3107 76.6509 28.264C76.8562 28.208 77.0196 28.138 77.1409 28.054C77.2622 27.9607 77.3462 27.8533 77.3929 27.732C77.4396 27.6107 77.4629 27.4753 77.4629 27.326C77.4629 27.0087 77.3136 26.7473 77.0149 26.542C76.7162 26.3273 76.2029 26.0987 75.4749 25.856C75.1576 25.744 74.8402 25.618 74.5229 25.478C74.2056 25.3287 73.9209 25.1467 73.6689 24.932C73.4169 24.708 73.2116 24.442 73.0529 24.134C72.8942 23.8167 72.8149 23.434 72.8149 22.986C72.8149 22.538 72.8989 22.1367 73.0669 21.782C73.2349 21.418 73.4729 21.11 73.7809 20.858C74.0889 20.606 74.4622 20.4147 74.9009 20.284C75.3396 20.144 75.8342 20.074 76.3849 20.074C77.0382 20.074 77.6029 20.144 78.0789 20.284C78.5549 20.424 78.9469 20.578 79.2549 20.746L78.6249 22.468C78.3542 22.328 78.0509 22.2067 77.7149 22.104C77.3882 21.992 76.9916 21.936 76.5249 21.936C76.0022 21.936 75.6242 22.0107 75.3909 22.16C75.1669 22.3 75.0549 22.5193 75.0549 22.818C75.0549 22.9953 75.0969 23.1447 75.1809 23.266C75.2649 23.3873 75.3816 23.4993 75.5309 23.602C75.6896 23.6953 75.8669 23.784 76.0629 23.868C76.2682 23.9427 76.4922 24.022 76.7349 24.106C77.2389 24.2927 77.6776 24.4793 78.0509 24.666C78.4242 24.8433 78.7322 25.0533 78.9749 25.296C79.2269 25.5387 79.4136 25.8233 79.5349 26.15C79.6562 26.4767 79.7169 26.8733 79.7169 27.34C79.7169 28.2453 79.3996 28.95 78.7649 29.454C78.1302 29.9487 77.1736 30.196 75.8949 30.196C75.4656 30.196 75.0782 30.168 74.7329 30.112C74.3876 30.0653 74.0796 30.0047 73.8089 29.93C73.5476 29.8553 73.3189 29.776 73.1229 29.692C72.9362 29.608 72.7776 29.5287 72.6469 29.454L73.2629 27.718C73.5522 27.8767 73.9069 28.0213 74.3269 28.152C74.7562 28.2733 75.2789 28.334 75.8949 28.334ZM86.1293 21.978C85.112 21.978 84.3747 22.2627 83.9173 22.832C83.4693 23.392 83.2453 24.162 83.2453 25.142C83.2453 25.618 83.3013 26.052 83.4133 26.444C83.5253 26.8267 83.6933 27.158 83.9173 27.438C84.1413 27.718 84.4213 27.9373 84.7573 28.096C85.0933 28.2453 85.4853 28.32 85.9333 28.32C86.176 28.32 86.3813 28.3153 86.5493 28.306C86.7267 28.2967 86.8807 28.278 87.0113 28.25V24.876H89.1953V29.678C88.934 29.7807 88.514 29.888 87.9353 30C87.3567 30.1213 86.6427 30.182 85.7933 30.182C85.0653 30.182 84.4027 30.07 83.8053 29.846C83.2173 29.622 82.7133 29.2953 82.2933 28.866C81.8733 28.4367 81.5467 27.9093 81.3133 27.284C81.0893 26.6587 80.9773 25.9447 80.9773 25.142C80.9773 24.33 81.1033 23.6113 81.3553 22.986C81.6073 22.3607 81.9527 21.8333 82.3913 21.404C82.83 20.9653 83.3433 20.634 83.9313 20.41C84.5287 20.186 85.1633 20.074 85.8353 20.074C86.2927 20.074 86.7033 20.1067 87.0673 20.172C87.4407 20.228 87.758 20.298 88.0193 20.382C88.29 20.4567 88.5093 20.536 88.6773 20.62C88.8547 20.704 88.9807 20.7693 89.0553 20.816L88.4253 22.566C88.1267 22.4073 87.7813 22.272 87.3893 22.16C87.0067 22.0387 86.5867 21.978 86.1293 21.978Z" fill="white"/>
<g clip-path="url(#clip1)">
<path d="M9.72433 17.0119C3.92055 17.4583 2.27435 9.71184 2.07434 5.16184C2.00004 3.20491 0.72432 2.91186 5.52433 3.36187C14.0105 4.15746 16.1243 7.81184 16.0243 10.4118C16.3243 11.8618 15.5743 16.5618 9.72433 17.0119Z" fill="#BFFB32"/>
<path d="M24.4799 20.0242C29.7155 20.427 31.5677 14.1624 32.027 9.59171C32.1216 8.65076 32.4411 7.74661 32.5024 6.80292C32.5433 6.17373 31.8721 6.07495 28.6799 6.37423C20.1938 7.16982 18.0799 10.8242 18.1799 13.4242C17.8799 14.8742 18.6299 19.5742 24.4799 20.0242Z" fill="#90FF40"/>
<path d="M8.5625 9.5C13.6625 12.05 17.4125 21.05 16.8845 29.9" stroke="#8CDC52" stroke-width="1.40625" stroke-linecap="round" stroke-linejoin="round"/>
<path d="M26.0564 12.3125C20.9564 14.8625 16.3785 21.0125 16.9064 29.8625" stroke="#5DC378" stroke-width="1.40625" stroke-linecap="round" stroke-linejoin="round"/>
</g>
</g>
<defs>
<clipPath id="clip0">
<rect width="93" height="33" fill="white"/>
</clipPath>
<clipPath id="clip1">
<rect width="30" height="30" fill="white" transform="translate(2 2)"/>
</clipPath>
</defs>
</svg>
