<svg width="64" height="64" viewBox="0 0 64 64" fill="none" xmlns="http://www.w3.org/2000/svg">
<circle cx="32" cy="32" r="32" fill="#F8F8FC"/>
<path d="M55.4896 27.9349C55.4248 27.2576 54.8888 26.7215 54.2117 26.6567C53.8324 26.6206 44.8605 25.8288 39.6359 31.0548C38.503 32.188 37.6534 33.4975 37.0172 34.8572C35.9695 30.5659 34.1059 27.0056 31.5474 24.4465C28.3941 21.2924 23.7205 19.1939 18.032 18.378C13.7993 17.7708 10.5034 18.0741 10.3652 18.0875C9.68812 18.1522 9.15213 18.6884 9.08739 19.3657C9.07412 19.5039 8.77089 22.8006 9.3778 27.0345C10.1935 32.7245 12.2913 37.3995 15.4447 40.5535C18.598 43.7077 23.2717 45.8062 28.9602 46.6221C31.0552 46.9226 32.9202 47 34.2867 47C35.5251 46.9999 36.3529 46.9365 36.572 46.9175C36.7594 46.9336 37.3299 46.9757 38.1607 46.9757C41.0664 46.9757 47.1479 46.4606 51.0927 42.5146C56.3172 37.2888 55.5258 28.3145 55.4896 27.9349Z" fill="#BFFB32"/>
<path d="M46.8096 35.7581C46.2554 35.2039 45.3568 35.2039 44.8024 35.7581L37.0136 43.547L24.9413 31.4746C24.3871 30.9204 23.4885 30.9204 22.9341 31.4746C22.3797 32.0288 22.3798 32.9275 22.9341 33.4818L35.93 46.4777C36.2072 46.7549 36.5704 46.8935 36.9335 46.8935C36.9602 46.8935 36.9869 46.8912 37.0136 46.8896C37.0402 46.8912 37.0669 46.8935 37.0936 46.8935C37.4568 46.8935 37.82 46.7549 38.0971 46.4777L46.8094 37.7653C47.3639 37.2109 47.3639 36.3122 46.8096 35.7581Z" fill="#8CDC52"/>
<path d="M54.2116 26.6364C53.8323 26.6002 44.8604 25.8086 39.6358 31.0333C38.5029 32.1662 37.6533 33.4753 37.0171 34.8347C37.0032 34.7781 36.9887 34.7222 36.9746 34.6658V46.9193C37.2591 46.9349 37.6626 46.9499 38.1606 46.9499C41.0663 46.9499 47.1478 46.4349 51.0926 42.4899C56.3171 37.2654 55.5257 28.2936 55.4895 27.9141C55.4248 27.2371 54.8887 26.7011 54.2116 26.6364Z" fill="#8CDC52"/>
<path d="M44.768 35.7737L37.0844 43.4927L37.0461 43.4544V46.8071C37.0589 46.8064 37.0716 46.8061 37.0844 46.8052C37.1106 46.8068 37.137 46.8091 37.1633 46.8091C37.5216 46.8091 37.8799 46.6717 38.1532 46.3971L46.7479 37.7628C47.2947 37.2136 47.2947 36.323 46.7479 35.7736C46.2012 35.2244 45.3147 35.2244 44.768 35.7737Z" fill="#5DC378"/>
</svg>
